 <svg xmlns="http://www.w3.org/2000/svg" viewBox="0 0 1500 1500" class="yXJMw" preserveAspectRatio="xMidYMid meet"><defs><clipPath id="__lottie_element_274"><rect width="1500" height="1500" x="0" y="0"></rect></clipPath><linearGradient id="__lottie_element_285" spreadMethod="pad" gradientUnits="userSpaceOnUse" x1="11.385000228881836" y1="13.565999984741211" x2="23.400999069213867" y2="24.1299991607666"><stop offset="0%" stop-color="rgb(0,0,0)" stop-opacity="0"></stop><stop offset="50%" stop-color="rgb(0,0,0)" stop-opacity="0.10000000149011612"></stop><stop offset="100%" stop-color="rgb(0,0,0)" stop-opacity="0.20000000298023224"></stop></linearGradient><filter id="__lottie_element_290" filterUnits="objectBoundingBox" x="0%" y="0%" width="100%" height="100%"><feComponentTransfer in="SourceGraphic"><feFuncA type="table" tableValues="1.0 0.0"></feFuncA></feComponentTransfer></filter><mask id="__lottie_element_289" mask-type="alpha"><g filter="url(#__lottie_element_290)"><rect width="1500" height="1500" x="0" y="0" fill="#ffffff" opacity="0"></rect><g transform="matrix(1,0,0,1,500,250)" opacity="1" style="display: block;"><g opacity="1" transform="matrix(31.25,0,0,31.25,0,0)"><path fill="url(#__lottie_element_293)" fill-rule="evenodd" fill-opacity="1" d=" M12,0 C18.622800827026367,0 24,5.377200126647949 24,12 C24,18.622800827026367 18.622800827026367,24 12,24 C5.377200126647949,24 0,18.622800827026367 0,12 C0,5.377200126647949 5.377200126647949,0 12,0z"></path><path fill-rule="evenodd" fill="rgb(240,242,244)" fill-opacity="0.8" d=" M12,0 C18.622800827026367,0 24,5.377200126647949 24,12 C24,18.622800827026367 18.622800827026367,24 12,24 C5.377200126647949,24 0,18.622800827026367 0,12 C0,5.377200126647949 5.377200126647949,0 12,0z"></path></g></g></g></mask><linearGradient id="__lottie_element_293" spreadMethod="pad" gradientUnits="userSpaceOnUse" x1="11.385000228881836" y1="13.565999984741211" x2="23.400999069213867" y2="24.1299991607666"><stop offset="0%" stop-color="rgb(0,0,0)" stop-opacity="0"></stop><stop offset="50%" stop-color="rgb(0,0,0)" stop-opacity="0.10000000149011612"></stop><stop offset="100%" stop-color="rgb(0,0,0)" stop-opacity="0.20000000298023224"></stop></linearGradient></defs><g clip-path="url(#__lottie_element_274)"><g mask="url(#__lottie_element_289)" style="display: block;"><g transform="matrix(1,0,0,1,250,687.5)" opacity="0.9999995438399311"><g opacity="1" transform="matrix(31.25,0,0,31.25,0,0)"><path fill="rgb(240,242,244)" fill-opacity="1" d=" M10,0 C4.480000019073486,0 0,4.480000019073486 0,10 C0.009999999776482582,9.979999542236328 20.010000228881836,9.979999542236328 20,10 C20,4.480000019073486 15.520000457763672,0 10,0z"></path></g></g></g><g transform="matrix(1,0,0,1,728.75,731)" opacity="1" style="display: block;"><path stroke-linecap="butt" stroke-linejoin="miter" fill-opacity="0" stroke-miterlimit="4" stroke="rgb(251,188,4)" stroke-opacity="1" stroke-width="29.999999992947817" d=" M-224.63,-466.44 C-92.39,-466.44 14.98,-360.81 14.98,-230.72 C14.98,-100.63 -92.39,5 -224.63,5 C-356.88,5 -464.25,-100.63 -464.25,-230.72 C-464.25,-360.81 -356.88,-466.44 -224.63,-466.44z"></path><g opacity="1" transform="matrix(1.3110100030899048,0,0,1.2896699905395508,-224.63424682617188,-230.71823120117188)"></g></g><g transform="matrix(1,0,0,1,500,250)" opacity="1" style="display: block;"><g opacity="1" transform="matrix(31.25,0,0,31.25,0,0)"><path fill="url(#__lottie_element_285)" fill-rule="evenodd" fill-opacity="0.5" d=" M12,0 C18.622800827026367,0 24,5.377200126647949 24,12 C24,18.622800827026367 18.622800827026367,24 12,24 C5.377200126647949,24 0,18.622800827026367 0,12 C0,5.377200126647949 5.377200126647949,0 12,0z"></path><path fill-rule="evenodd" fill="rgb(240,242,244)" fill-opacity="0.8" d=" M12,0 C18.622800827026367,0 24,5.377200126647949 24,12 C24,18.622800827026367 18.622800827026367,24 12,24 C5.377200126647949,24 0,18.622800827026367 0,12 C0,5.377200126647949 5.377200126647949,0 12,0z"></path></g></g><g transform="matrix(2.130000114440918,0,0,2.130000114440918,751.0599975585938,750.7899780273438)" opacity="1" style="mix-blend-mode: multiply; display: block;"><g opacity="1" transform="matrix(1,0,0,1,88,117)"><path fill="rgb(251,188,4)" fill-opacity="1" d=" M-29.33300018310547,-117 C-29.33300018310547,-117 -88,0 -88,0 C-88,0 -35.20000076293945,0 -35.20000076293945,0 C-35.20000076293945,0 -41.74100112915039,117 -41.74100112915039,117 C-41.74100112915039,117 87.32499694824219,-29.25 87.32499694824219,-29.25 C87.32499694824219,-29.25 41.051998138427734,-29.25 41.051998138427734,-29.25 C41.051998138427734,-29.25 88,-117 88,-117 C88,-117 -29.33300018310547,-117 -29.33300018310547,-117z"></path></g></g><g transform="matrix(2.130000114440918,0,0,2.130000114440918,751.0599975585938,750.7899780273438)" opacity="1" style="display: block;"><g opacity="1" transform="matrix(1,0,0,1,88,117)"><path fill="rgb(255,255,255)" fill-opacity="0.03" d=" M-29.33300018310547,-117 C-29.33300018310547,-117 -88,0 -88,0 C-88,0 -35.20000076293945,0 -35.20000076293945,0 C-35.20000076293945,0 -41.74100112915039,117 -41.74100112915039,117 C-41.74100112915039,117 87.32499694824219,-29.25 87.32499694824219,-29.25 C87.32499694824219,-29.25 41.051998138427734,-29.25 41.051998138427734,-29.25 C41.051998138427734,-29.25 88,-117 88,-117 C88,-117 -29.33300018310547,-117 -29.33300018310547,-117z"></path></g></g></g></svg>